<svg xmlns="http://www.w3.org/2000/svg" viewBox="0 0 137.36 120.14"><defs><style>.art-lifecycle-icon{fill:#f9f2d4;}</style></defs><title>art-lifecycle-icon</title><g id="Layer_2" data-name="Layer 2"><g id="design"><path class="art-lifecycle-icon" d="M0,.06V4.58A118,118,0,0,1,64.71,30.52l.1.08-.1.09a125.84,125.84,0,0,0-12,12.21l-.07.09-.08-.07A101.14,101.14,0,0,0,0,21.93v4.54A96.62,96.62,0,0,1,49.68,46.39l.09.07-.07.09a124.45,124.45,0,0,0-9.32,13.5l-.06.11-.1-.08A79.6,79.6,0,0,0,0,43.68v4.53A75,75,0,0,1,38,64.06l.08,0L38,64.2a122.46,122.46,0,0,0-7.27,16l-.06.15-.13-.11A58.13,58.13,0,0,0,0,65.3v4.57A53.56,53.56,0,0,1,29,85l0,0,0,.07a122.56,122.56,0,0,0-4.91,21.72l-.05.38-.16-.34A37.51,37.51,0,0,0,0,86.92v4.7a32.81,32.81,0,0,1,15.72,10.69A32.67,32.67,0,0,1,23,120.14h4.65a118.48,118.48,0,0,1,4.89-31l.06-.21.13.17a53.43,53.43,0,0,1,12,31.07h4.7a96.5,96.5,0,0,1,7.24-34l.09-.22.12.21a75.46,75.46,0,0,1,9.61,34h4.68a74.38,74.38,0,0,1,9-33l.12-.21.09.22a96.66,96.66,0,0,1,6.83,33h4.64a53.59,53.59,0,0,1,12-31.13l.13-.16.06.2a118.1,118.1,0,0,1,4.9,31.09h4.65a33.1,33.1,0,0,1,23.73-28.75V86.72a37.39,37.39,0,0,0-24.67,20.12l-.17.34,0-.38A122.16,122.16,0,0,0,107.54,85l0-.07,0,0a53.54,53.54,0,0,1,29.79-15.2V65.17a58.09,58.09,0,0,0-31.34,15l-.12.11-.06-.15a122.45,122.45,0,0,0-7-15.4l0-.08.07-.06a75,75,0,0,1,38.46-16.37V43.7A79.6,79.6,0,0,0,96.68,60.6l-.1.09-.06-.12a125.06,125.06,0,0,0-9.62-14l-.08-.09.09-.07a96.63,96.63,0,0,1,50.45-20V21.85A101.07,101.07,0,0,0,84.05,42.92L84,43l-.07-.09a127,127,0,0,0-12-12.21l-.1-.09.1-.08a118,118,0,0,1,65.48-26V0a122.42,122.42,0,0,0-69,27.57l-.07.06-.07-.06A122.5,122.5,0,0,0,0,.06ZM53.8,81.33a101.05,101.05,0,0,0-7.29,23.32l-.08.43-.14-.42A58.2,58.2,0,0,0,34.23,83.94l0,0,0-.06A118.49,118.49,0,0,1,41.5,67.22l.07-.13.11.1a76.12,76.12,0,0,1,12.11,14l0,0Zm2.37-4.87-.09.16-.1-.15A80.89,80.89,0,0,0,43.89,63.14l-.07-.06,0-.08a119.67,119.67,0,0,1,9.31-13.6l.07-.09.09.07a98.87,98.87,0,0,1,12,12.34l.06.07-.06.07A103.28,103.28,0,0,0,56.17,76.46ZM78,81.86a79.52,79.52,0,0,0-9.13,22l-.11.44-.11-.44A79.3,79.3,0,0,0,59,81l0,0,0-.06A97.15,97.15,0,0,1,68.21,65.6l.09-.12.09.12A97.37,97.37,0,0,1,78,81.76l0,0ZM95.23,67.79l.11-.1.07.13a119.48,119.48,0,0,1,7,16l0,.07,0,.05a58.1,58.1,0,0,0-12.07,20.66l-.14.41-.08-.43A101.17,101.17,0,0,0,83.18,82.2l0,0,0-.05A76.34,76.34,0,0,1,95.23,67.79ZM83.34,49.31l.07.09a119,119,0,0,1,9.65,14.16l0,.08L93,63.7A81.1,81.1,0,0,0,81,77.26l-.11.15-.08-.16a101.86,101.86,0,0,0-9.62-15.39l0-.07,0-.07a98.87,98.87,0,0,1,12-12.34Zm-15-15.72a121.24,121.24,0,0,1,12,12.16l.07.09-.09.07a103.79,103.79,0,0,0-12,12.17l-.08.11-.09-.11a103,103,0,0,0-12-12.17l-.09-.07.08-.09a120.08,120.08,0,0,1,12-12.16l.08-.06Z"/></g></g></svg>