<svg xmlns="http://www.w3.org/2000/svg" viewBox="0 0 137.41 120.17"><defs><style>.cls-1{fill:#010101;}</style></defs><title>art-lifecycle-dark</title><g id="Layer_2" data-name="Layer 2"><g id="Layer_1-2" data-name="Layer 1"><g id="Layer_2-2" data-name="Layer 2"><g id="design"><path class="cls-1" d="M0,.06V4.58A118,118,0,0,1,64.71,30.52l.1.08-.1.09a125.75,125.75,0,0,0-12,12.21l-.07.09-.08-.07A101.1,101.1,0,0,0,0,21.93v4.54A96.56,96.56,0,0,1,49.68,46.39l.09.07-.07.09a125,125,0,0,0-9.32,13.5l-.06.11-.1-.08A79.58,79.58,0,0,0,0,43.68v4.53A75,75,0,0,1,38,64.06h.08L38,64.2a123.2,123.2,0,0,0-7.27,16l-.06.15-.13-.11A58.17,58.17,0,0,0,0,65.3v4.57A53.6,53.6,0,0,1,29,85h0v.07a122.56,122.56,0,0,0-4.91,21.72l-.05.38-.16-.34A37.51,37.51,0,0,0,0,86.92v4.7a32.76,32.76,0,0,1,15.72,10.69A32.7,32.7,0,0,1,23,120.14h4.65a118.47,118.47,0,0,1,4.89-31l.06-.21.13.17a53.43,53.43,0,0,1,12,31.07h4.7a96.62,96.62,0,0,1,7.24-34l.09-.22.12.21a75.48,75.48,0,0,1,9.61,34h4.68a74.47,74.47,0,0,1,9-33l.12-.21.09.22a96.77,96.77,0,0,1,6.83,33h4.64a53.63,53.63,0,0,1,12-31.13l.13-.16.06.2a118.26,118.26,0,0,1,4.9,31.09h4.65a33.09,33.09,0,0,1,23.73-28.75v-4.7a37.38,37.38,0,0,0-24.67,20.12l-.17.34v-.38A122.41,122.41,0,0,0,107.54,85v-.07h0a53.54,53.54,0,0,1,29.79-15.2V65.17a58.13,58.13,0,0,0-31.34,15l-.12.11-.06-.15a122.63,122.63,0,0,0-7-15.4v-.08l.07-.06a75,75,0,0,1,38.46-16.37V43.7A79.65,79.65,0,0,0,96.68,60.6l-.1.09-.06-.12a125.31,125.31,0,0,0-9.62-14l-.08-.09.09-.07a96.62,96.62,0,0,1,50.45-20V21.85A101.06,101.06,0,0,0,84.05,42.92L84,43l-.07-.09a126.89,126.89,0,0,0-12-12.21l-.1-.09.1-.08a118,118,0,0,1,65.48-26V0a122.41,122.41,0,0,0-69,27.57l-.07.06-.07-.06A122.48,122.48,0,0,0,0,.06ZM53.8,81.33a101.36,101.36,0,0,0-7.29,23.32l-.08.43-.14-.42A58.23,58.23,0,0,0,34.23,83.94h0v-.06A117.82,117.82,0,0,1,41.5,67.22l.07-.13.11.1a76.26,76.26,0,0,1,12.11,14h0Zm2.37-4.87-.09.16-.1-.15A80.94,80.94,0,0,0,43.89,63.14l-.07-.06V63a120.15,120.15,0,0,1,9.31-13.6l.07-.09.09.07a99.22,99.22,0,0,1,12,12.34l.06.07-.06.07A103.38,103.38,0,0,0,56.17,76.46ZM78,81.86a79.45,79.45,0,0,0-9.13,22l-.11.44-.11-.44A79.31,79.31,0,0,0,59,81h0v-.06A96.53,96.53,0,0,1,68.21,65.6l.09-.12.09.12A96.86,96.86,0,0,1,78,81.76h0ZM95.23,67.79l.11-.1.07.13a119.64,119.64,0,0,1,7,16v.12A58.16,58.16,0,0,0,90.34,104.6l-.14.41-.08-.43A101.49,101.49,0,0,0,83.18,82.2h0v0A76.34,76.34,0,0,1,95.23,67.79ZM83.34,49.31l.07.09a118.56,118.56,0,0,1,9.65,14.16v.08L93,63.7A81.44,81.44,0,0,0,81,77.26l-.11.15-.08-.16a101.16,101.16,0,0,0-9.62-15.39v-.14a99.22,99.22,0,0,1,12-12.34Zm-15-15.72a121.9,121.9,0,0,1,12,12.16l.07.09-.09.07a103.71,103.71,0,0,0-12,12.17l-.08.11-.09-.11a103.71,103.71,0,0,0-12-12.17l-.09-.07.08-.09a120.84,120.84,0,0,1,12-12.16l.08-.06Z"/></g></g></g></g></svg>