<svg xmlns="http://www.w3.org/2000/svg" viewBox="0 0 55.05 55.04"><defs><style>.cls-1{fill:#fff;}</style></defs><title>Asset 3</title><g id="Layer_2" data-name="Layer 2"><g id="design"><path class="cls-1" d="M20.15,27.51a7.41,7.41,0,1,0,2.17-5.24A7.36,7.36,0,0,0,20.15,27.51Z"/><rect class="cls-1" x="22.25" y="42.27" width="10.58" height="10.58" transform="translate(-25.56 33.41) rotate(-45)"/><rect class="cls-1" x="42.27" y="22.2" width="10.58" height="10.58" transform="translate(-5.51 41.68) rotate(-45)"/><rect class="cls-1" x="36.83" y="36.82" width="10.58" height="10.58"/><rect class="cls-1" x="2.19" y="22.13" width="10.58" height="10.58" transform="translate(-17.2 13.32) rotate(-45)"/><rect class="cls-1" x="22.18" y="2.19" width="10.58" height="10.58" transform="translate(2.76 21.61) rotate(-45)"/><rect class="cls-1" x="7.63" y="7.62" width="10.58" height="10.58"/><rect class="cls-1" x="36.83" y="7.62" width="10.58" height="10.58"/><rect class="cls-1" x="7.63" y="36.82" width="10.58" height="10.58"/></g></g></svg>