<svg xmlns="http://www.w3.org/2000/svg" viewBox="0 0 305.93 185"><defs><style>.cls-1{fill:#231f20;}</style></defs><title>lumiere-group-with-border</title><g id="Layer_2" data-name="Layer 2"><g id="Layer_1-2" data-name="Layer 1"><path class="cls-1" d="M305.93,147.77V37.22H290.4V33h8.2V22.55h-8.2v-7.1h-6.58V7.69H273.28v7.76H268.7V0H37.22V15.45H33.56V7.69H23v7.76H15.53v7.1H8.24V33h7.29v4.22H0V147.77H15.53v4.31H8.24v10.45h7.29v7H23v7.84H33.56v-7.84h3.66V185H268.7V169.55h4.58v7.84h10.55v-7.84h6.58v-7h8.2V152.08h-8.2v-4.31ZM305.15,38V147H290.4v-4.19l7.55-7.55V49.74l-7.55-7.55V38ZM274.06,158.05v-5.2h5.2Zm6.29-5.2h9.27v8.9H283v7h-9v-9.62Zm-7.07-.77v6.75l-4.58,4.57V147.77h15.64L280,152.08ZM267.93,147v17.18l-4.59,4.59H42.59L38,164.18V147H20.81l-4.5-4.51v-100L20.81,38H38V20.82l4.59-4.6H263.34l4.59,4.6V38h17.18l4.51,4.51v100L285.11,147Zm0,18.28v3.49h-3.5Zm-5.37,4.27-7,7H50.41l-7-7ZM41.5,168.77H38v-3.49ZM26.67,152.85h6.11V159Zm6.11,7.21v8.71h-9v-7H16.31v-8.9h9.27Zm-6.88-8-4.31-4.31H37.22v15.64l-3.66-3.67v-7.66ZM19.72,147H16.31v-3.42Zm-4.19-5.29-6.77-6.77V50.06l6.77-6.78Zm.78-100.3V38h3.41ZM32.78,26v6.2H26.59Zm-7.29,6.2H16.31v-8.9H23.8V16.22h9v8.72Zm8.07.77V25.26l3.66-3.67V37.22H21.59L25.81,33ZM38,19.72v-3.5h3.5Zm5.37-4.27,7-7H255.52l7,7Zm221.06.77h3.5v3.5Zm14.91,16h-5.28V27Zm-5.28-6.38V16.22h9v7.12h6.58v8.9h-9.18ZM280.12,33l4.22,4.22H268.7V21.59l4.58,4.58V33Zm6.09,5h3.41v3.41Zm4.19,5.28,6.77,6.78v84.88l-6.77,6.77Zm-.78,100.3V147h-3.41Zm0-106.36h-4.18L281.21,33h8.41Zm8.2-13.9v8.91H290.4v-8.9Zm-8.2-7.1v6.34h-5.8V16.22ZM274.06,8.46h9v7h-9Zm-.78,7.76v8.85l-4.58-4.58V16.22ZM38,.78H267.93V15.45h-4.27l-7.82-7.82H50.09l-7.82,7.82H38Zm-.78,15.44v4.27l-3.66,3.67V16.22ZM23.78,8.46h9v7h-9Zm-7.47,7.76H23v6.34H16.31ZM9,32.23V23.32h6.51v8.9Zm7.29.77h8.41l-4.23,4.22H16.31ZM.78,147V38H15.53v4.19L8,49.74v85.52l7.55,7.55V147Zm15.53.77h4.18l4.31,4.31H16.31ZM9,161.76v-8.91h6.51v8.9Zm7.29,7v-6.25H23v6.25Zm16.47,7.84h-9v-7.06h9Zm.78-7.84v-7.94l3.66,3.67v4.27Zm234.37,15.45H38V169.55h4.27l7.82,7.81H255.84l7.82-7.81h4.27Zm.77-15.45V164.5l4.58-4.58v8.85Zm14.36,7.84h-9v-7.06h9Zm6.56-7.84h-5.8v-6.25h5.8Zm8.2-15.92v8.91H290.4v-8.9Zm-8.2-.77h-8.49l4.31-4.31h4.18Z"/><polygon class="cls-1" points="139.9 63.36 141.49 63.36 141.49 53.78 144.78 53.78 144.78 52.39 136.6 52.39 136.6 53.78 139.9 53.78 139.9 63.36"/><polygon class="cls-1" points="155.8 63.36 157.41 63.36 157.41 52.39 155.8 52.39 155.8 57.34 150.34 57.34 150.34 52.39 148.73 52.39 148.73 63.36 150.34 63.36 150.34 58.74 155.8 58.74 155.8 63.36"/><polygon class="cls-1" points="163.78 58.53 168.5 58.53 168.5 57.17 163.78 57.17 163.78 53.78 169.1 53.78 169.1 52.39 162.17 52.39 162.17 63.36 169.33 63.36 169.33 61.97 163.78 61.97 163.78 58.53"/><path class="cls-1" d="M130.63,130.44h0a5,5,0,0,1-2.76.73,4,4,0,0,1-4.23-4.21,4,4,0,0,1,4-4.19,3.64,3.64,0,0,1,2.78,1.06l1.07-1.07a5,5,0,0,0-3.85-1.42A5.45,5.45,0,0,0,122,127a5.51,5.51,0,0,0,5.87,5.64,6.52,6.52,0,0,0,4.24-1.39v-4.33h-4.44v1.37h3Z"/><path class="cls-1" d="M142,128.07a3.12,3.12,0,0,0,2.21-3.12c0-2.2-1.45-3.46-4-3.46h-3.66v11h1.6v-4.12h2.11l2.4,4.12h1.83l-2.59-4.36Zm-1.82-1h-2v-4.14h2c1.6,0,2.38.67,2.38,2.07S141.72,127,140.14,127Z"/><path class="cls-1" d="M153.64,121.34a5.64,5.64,0,1,0,5.65,5.63A5.53,5.53,0,0,0,153.64,121.34Zm0,9.84a4.21,4.21,0,1,1,4-4.21A4,4,0,0,1,153.64,131.18Z"/><path class="cls-1" d="M165.09,128.52v-7h-1.6v7.13c0,2.46,1.59,4,4.16,4s4.17-1.53,4.17-4v-7.13h-1.59v7c0,1.77-.87,2.66-2.58,2.66S165.09,130.29,165.09,128.52Z"/><path class="cls-1" d="M180,121.49h-3.51v11h1.61v-3.93H180c2.49,0,4-1.32,4-3.53S182.47,121.49,180,121.49Zm-.06,5.64h-1.84v-4.25h1.84c1.59,0,2.4.71,2.4,2.12S181.49,127.13,179.92,127.13Z"/><polygon class="cls-1" points="58.83 76.77 57.3 76.77 57.3 107.31 75.47 107.31 75.47 105.78 58.83 105.78 58.83 76.77"/><polygon class="cls-1" points="190.26 82.34 190.26 80.81 175.56 80.81 175.56 90.66 188.69 90.66 188.69 89.14 177.09 89.14 177.09 82.34 190.26 82.34"/><polygon class="cls-1" points="248.03 82.34 248.03 80.81 233.32 80.81 233.32 90.66 246.45 90.66 246.45 89.14 234.85 89.14 234.85 82.34 248.03 82.34"/><path class="cls-1" d="M216,86.92c0-4.11-2.25-6.1-6.87-6.1H203.9V93h5.24C213.76,93,216,91,216,86.92Zm-6.87,4.57h-3.71V82.35h3.71c3.74,0,5.34,1.36,5.34,4.57S212.88,91.49,209.14,91.49Z"/><polygon class="cls-1" points="63.4 76.77 61.87 76.77 61.87 103.25 75.47 103.25 75.47 101.72 63.4 101.72 63.4 76.77"/><path class="cls-1" d="M95,103.55c4.75,0,7.25-2.6,7.25-7.51V76.77h-1.52V96c0,4.08-1.82,6-5.73,6s-5.76-1.9-5.76-6V76.77H87.72V96C87.72,101,90.24,103.55,95,103.55Z"/><path class="cls-1" d="M105.3,96.3c0,6.17-3.84,9.86-10.29,9.86s-10.33-3.69-10.33-9.86V76.77H83.16V96.3c0,7,4.54,11.39,11.85,11.39s11.82-4.36,11.82-11.39V76.77H105.3Z"/><polygon class="cls-1" points="115.83 75.1 115.83 107.3 117.36 107.3 117.36 79.2 130.91 94.86 130.98 94.94 144.42 79.22 144.42 107.3 145.95 107.3 145.95 75.08 130.97 92.6 115.83 75.1"/><polygon class="cls-1" points="120.3 86.3 120.14 86.11 120.14 107.3 121.67 107.3 121.67 90.33 130.79 101.28 130.86 101.36 140.11 90.32 140.11 107.3 141.64 107.3 141.64 86.12 130.86 98.98 120.3 86.3"/><rect class="cls-1" x="155.51" y="76.77" width="1.53" height="30.53"/><rect class="cls-1" x="160.07" y="76.77" width="1.53" height="30.53"/><polygon class="cls-1" points="172.52 78.29 190.26 78.29 190.26 76.76 170.99 76.76 170.99 107.31 190.86 107.31 190.86 105.78 172.52 105.78 172.52 78.29"/><polygon class="cls-1" points="177.09 94.63 188.69 94.63 188.69 93.11 175.56 93.11 175.56 103.25 190.86 103.25 190.86 101.72 177.09 101.72 177.09 94.63"/><polygon class="cls-1" points="230.28 78.29 248.03 78.29 248.03 76.76 228.76 76.76 228.76 107.31 248.63 107.31 248.63 105.78 230.28 105.78 230.28 78.29"/><polygon class="cls-1" points="234.85 101.72 234.85 94.63 246.45 94.63 246.45 93.11 233.32 93.11 233.32 103.25 248.63 103.25 248.63 101.72 234.85 101.72"/><polygon class="cls-1" points="209.3 95.54 203.9 95.54 203.9 107.3 205.43 107.3 205.43 97.07 208.44 97.07 214.67 107.28 214.69 107.32 216.48 107.32 209.33 95.58 209.3 95.54"/><path class="cls-1" d="M220.74,86.92c0-6.26-4.38-10.15-11.43-10.15h-10V107.3h1.53v-29h8.45c6.21,0,9.91,3.23,9.91,8.63a7.85,7.85,0,0,1-5.9,8.08l-.94.28,7.23,12,0,0h1.78l-6.74-11.17A9.38,9.38,0,0,0,220.74,86.92Z"/></g></g></svg>