<svg xmlns="http://www.w3.org/2000/svg" viewBox="0 0 700.18 424.47"><defs><style>.border-1,.border-2{fill:none;stroke-width:1.49px;}.border-1{stroke:#231f20;}.border-2{stroke:#000;}.cls-3{fill:#231f20;}</style></defs><title>lumiere-group-with-border</title><g id="Layer_2" data-name="Layer 2"><g id="design"><polygon class="border-1" points="72.1 0.74 72.1 72.1 0.74 72.1 0.74 352.37 72.1 352.37 72.1 423.73 628.08 423.73 628.08 352.37 699.44 352.37 699.44 72.1 628.08 72.1 628.08 0.74 72.1 0.74"/><rect class="border-1" x="30.51" y="30.36" width="639.15" height="363.76"/><polygon class="border-2" points="96.32 15.37 16.05 95.64 16.05 328.82 96.32 409.1 603.86 409.1 684.13 328.82 684.13 95.64 603.86 15.37 96.32 15.37"/><polygon class="border-1" points="16.55 43.96 16.55 62.52 63.58 62.52 63.58 15.48 44.85 15.48 44.88 43.99 16.55 43.96"/><polygon class="border-1" points="685.38 43.96 685.38 62.52 638.35 62.52 638.35 15.48 657.08 15.48 657.05 43.99 685.38 43.96"/><polygon class="border-1" points="16.55 380.66 16.55 362.11 63.58 362.11 63.58 409.15 44.85 409.15 44.88 380.63 16.55 380.66"/><polygon class="border-1" points="685.38 380.66 685.38 362.11 638.35 362.11 638.35 409.15 657.08 409.15 657.05 380.63 685.38 380.66"/><polygon class="cls-3" points="330.51 155.4 333.73 155.4 333.73 135.95 340.42 135.95 340.42 133.12 323.81 133.12 323.81 135.95 330.51 135.95 330.51 155.4"/><polygon class="cls-3" points="362.79 155.4 366.04 155.4 366.04 133.12 362.79 133.12 362.79 143.17 351.69 143.17 351.69 133.12 348.44 133.12 348.44 155.4 351.69 155.4 351.69 146.02 362.79 146.02 362.79 155.4"/><polygon class="cls-3" points="378.97 145.59 388.55 145.59 388.55 142.84 378.97 142.84 378.97 135.95 389.78 135.95 389.78 133.12 375.72 133.12 375.72 155.4 390.24 155.4 390.24 152.58 378.97 152.58 378.97 145.59"/><path class="cls-3" d="M311.69,291.54l-.06,0a10.16,10.16,0,0,1-5.6,1.48,8.19,8.19,0,0,1-8.58-8.54c0-4.94,3.41-8.52,8.11-8.52a7.29,7.29,0,0,1,5.64,2.17l2.17-2.17c-1.75-1.92-4.38-2.89-7.81-2.89a11,11,0,0,0-11.43,11.41c0,6.73,4.89,11.43,11.9,11.43a13.26,13.26,0,0,0,8.62-2.81v-8.79h-9v2.79h6.06Z"/><path class="cls-3" d="M334.69,286.74a6.33,6.33,0,0,0,4.49-6.34c0-4.47-2.94-7-8.06-7h-7.43v22.27H327v-8.35h4.28l4.87,8.35h3.71l-5.27-8.85ZM331,284.6h-4v-8.41h4c3.25,0,4.83,1.38,4.83,4.21S334.2,284.6,331,284.6Z"/><path class="cls-3" d="M358.4,273.07a11.44,11.44,0,1,0,11.47,11.44A11.22,11.22,0,0,0,358.4,273.07Zm0,20c-4.74,0-8.18-3.59-8.18-8.54s3.44-8.55,8.18-8.55,8.15,3.6,8.15,8.55S363.12,293.05,358.4,293.05Z"/><path class="cls-3" d="M381.64,287.65V273.37h-3.26v14.48c0,5,3.24,8.09,8.46,8.09s8.45-3.1,8.45-8.09V273.37h-3.22v14.28c0,3.59-1.76,5.4-5.23,5.4S381.64,291.24,381.64,287.65Z"/><path class="cls-3" d="M411.87,273.37h-7.13v22.27H408v-8h3.87c5,0,8.06-2.68,8.06-7.16S416.91,273.37,411.87,273.37Zm-.13,11.46H408v-8.64h3.74c3.23,0,4.87,1.45,4.87,4.31S414.92,284.83,411.74,284.83Z"/><polygon class="cls-3" points="165.96 182.6 162.86 182.6 162.86 244.59 199.73 244.59 199.73 241.49 165.96 241.49 165.96 182.6"/><polygon class="cls-3" points="432.74 193.92 432.74 190.82 402.88 190.82 402.88 210.81 429.53 210.81 429.53 207.71 405.98 207.71 405.98 193.92 432.74 193.92"/><polygon class="cls-3" points="549.98 193.92 549.98 190.82 520.13 190.82 520.13 210.81 546.78 210.81 546.78 207.71 523.23 207.71 523.23 193.92 549.98 193.92"/><path class="cls-3" d="M485,203.21c0-8.33-4.56-12.38-13.94-12.38H460.41v24.75h10.64C480.43,215.58,485,211.53,485,203.21Zm-13.94,9.27h-7.54V193.93h7.54c7.6,0,10.84,2.77,10.84,9.28S478.65,212.48,471.05,212.48Z"/><polygon class="cls-3" points="175.23 182.6 172.13 182.6 172.13 236.36 199.73 236.36 199.73 233.26 175.23 233.26 175.23 182.6"/><path class="cls-3" d="M239.4,237c9.63,0,14.72-5.27,14.72-15.24V182.6H251v39.13c0,8.28-3.69,12.14-11.62,12.14s-11.7-3.86-11.7-12.14V182.6h-3.1v39.13C224.6,231.7,229.72,237,239.4,237Z"/><path class="cls-3" d="M260.29,222.25c0,12.53-7.81,20-20.89,20s-21-7.49-21-20V182.6h-3.1v39.65c0,14.26,9.22,23.12,24.06,23.12s24-8.86,24-23.12V182.6h-3.1Z"/><polygon class="cls-3" points="281.66 179.22 281.66 244.58 284.76 244.58 284.76 187.54 312.27 219.33 312.41 219.49 339.69 187.58 339.69 244.58 342.79 244.58 342.79 179.18 312.39 214.74 281.66 179.22"/><polygon class="cls-3" points="290.73 201.96 290.41 201.57 290.41 244.58 293.51 244.58 293.51 210.13 312.02 232.36 312.16 232.52 330.94 210.12 330.94 244.58 334.04 244.58 334.04 201.59 312.17 227.69 290.73 201.96"/><rect class="cls-3" x="362.19" y="182.6" width="3.1" height="61.97"/><rect class="cls-3" x="371.46" y="182.6" width="3.1" height="61.97"/><polygon class="cls-3" points="396.72 185.69 432.74 185.69 432.74 182.59 393.62 182.59 393.62 244.59 433.95 244.59 433.95 241.49 396.72 241.49 396.72 185.69"/><polygon class="cls-3" points="405.98 218.87 429.53 218.87 429.53 215.76 402.88 215.76 402.88 236.36 433.95 236.36 433.95 233.26 405.98 233.26 405.98 218.87"/><polygon class="cls-3" points="513.96 185.69 549.98 185.69 549.98 182.59 510.86 182.59 510.86 244.59 551.2 244.59 551.2 241.49 513.96 241.49 513.96 185.69"/><polygon class="cls-3" points="523.23 233.26 523.23 218.87 546.78 218.87 546.78 215.76 520.13 215.76 520.13 236.36 551.2 236.36 551.2 233.26 523.23 233.26"/><polygon class="cls-3" points="471.38 220.71 460.41 220.71 460.41 244.58 463.51 244.58 463.51 223.81 469.63 223.81 482.27 244.54 482.32 244.63 485.95 244.63 471.43 220.8 471.38 220.71"/><path class="cls-3" d="M494.6,203.21c0-12.71-8.89-20.61-23.2-20.61H451.14v62h3.1V185.7H471.4c12.59,0,20.1,6.55,20.1,17.51,0,8.27-4.25,14.1-12,16.4l-1.92.58,14.69,24.35.05.09H496L482.3,221.94C490.12,218.88,494.6,212.06,494.6,203.21Z"/></g></g></svg>