<svg xmlns="http://www.w3.org/2000/svg" viewBox="0 0 135.52 122.36"><defs><style>.cls-1{fill:#010101;}</style></defs><title>management-and-engagement-dark</title><g id="Layer_2" data-name="Layer 2"><g id="Layer_1-2" data-name="Layer 1"><g id="Layer_2-2" data-name="Layer 2"><g id="design"><path class="cls-1" d="M105.21,43.26h30.31L109.67.18h-5.33L127.45,38.7h-25L79.36.12H74L97.15,38.7h-25L49,.07H43.62L66.81,38.7h-25L18.57,0H13.23L36.46,38.7H6.05L30.36,79.16H0l25.75,43h5.33l-23-38.45h25l23.13,38.5h5.33L38.43,83.73H63.5l23.14,38.56H92L68.82,83.73h25L117,122.36h5.34L99.18,83.73h30.28ZM60.75,79.16H35.69L14.12,43.26H39.2Zm30.36,0h-25L44.53,43.26h25Zm30.29,0h-25L74.88,43.26h25Z"/></g></g></g></g></svg>