<svg xmlns="http://www.w3.org/2000/svg" viewBox="0 0 179.33 47.38"><defs><style>.team-svg{fill:#231f20;}</style></defs><title></title><g id="Layer_2" data-name="Layer 2"><g id="design"><rect class="team-svg" y="1.69" width="34.74" height="2.05"/><polygon class="team-svg" points="0 10.15 12.66 10.15 12.66 47.3 14.92 47.3 14.92 10.15 19.83 10.15 19.83 47.3 22.09 47.3 22.09 10.15 34.74 10.15 34.74 8.1 0 8.1 0 10.15"/><polygon class="team-svg" points="110.51 9.29 109.73 7.52 107.06 1.42 104.59 1.42 107.47 7.98 108.46 10.24 124.7 47.34 127.16 47.34 110.51 9.29"/><path class="team-svg" d="M106.53,18l-.19-.45-1.3-3-2.62-6-1-2.39-11,25.59L90,32.6l-.51,1.18H111l1.78,4h-25l-.55,1.28L87,39.8l-3.24,7.54h2.46l3.24-7.54H94.5l-3.3,7.54h2.46L97,39.8h16.65l3.3,7.54h2.47Zm-5.14-6.1h0l1.9,4.33.78,1.77L98,31.81H92.84Zm-.92,19.91,4.83-11,4.82,11Z"/><polygon class="team-svg" points="73.8 10.25 73.8 8.19 52.15 8.19 52.15 22.15 71.45 22.15 71.45 20.08 54.21 20.08 54.21 10.25 73.8 10.25"/><polygon class="team-svg" points="47.42 3.75 73.8 3.75 73.8 1.69 45.36 1.69 45.36 47.31 74.69 47.31 74.69 45.25 47.42 45.25 47.42 3.75"/><polygon class="team-svg" points="54.21 27.58 71.45 27.58 71.45 25.51 52.15 25.51 52.15 40.81 74.69 40.81 74.69 38.75 54.21 38.75 54.21 27.58"/><polygon class="team-svg" points="135.06 47.38 137.11 47.38 137.11 5.51 157.32 28.88 177.28 5.54 177.28 47.38 179.33 47.38 179.33 0 157.32 25.75 135.06 0.02 135.06 47.38"/><polygon class="team-svg" points="141.43 16.3 141.43 47.38 143.47 47.38 143.47 21.95 143.66 22.17 157.15 38.36 170.92 21.93 170.92 47.38 172.96 47.38 172.96 16.31 157.15 35.17 157.07 35.08 141.43 16.3"/></g></g></svg>