<svg xmlns="http://www.w3.org/2000/svg" viewBox="0 0 226.84 47.17"><defs><style>.cls-1{fill:#231f20;}</style></defs><title>about</title><g id="Layer_2" data-name="Layer 2"><g id="design"><path class="cls-1" d="M115.81,46.93c-13.45,0-23.6-10.09-23.6-23.46S102.36,0,115.81,0s23.53,10.09,23.53,23.47S129.22,46.93,115.81,46.93Zm0-44.68c-12.17,0-21.35,9.12-21.35,21.22s9.18,21.21,21.35,21.21a20.78,20.78,0,0,0,21.28-21.21A20.78,20.78,0,0,0,115.81,2.25Zm0,38.18c-9.43,0-16.27-7.14-16.27-17s6.84-17,16.27-17,16.2,7.14,16.2,17S125.2,40.43,115.81,40.43Zm0-31.68c-8.12,0-14,6.19-14,14.72s5.9,14.71,14,14.71S129.76,32,129.76,23.47,123.89,8.75,115.81,8.75Z"/><path class="cls-1" d="M166.46,40.66c-7,0-10.57-3.68-10.57-10.94V.9h2.25V29.72c0,6,2.57,8.69,8.32,8.69s8.38-2.68,8.38-8.69V.9h2.25V29.72C177.09,37,173.52,40.66,166.46,40.66Z"/><path class="cls-1" d="M166.46,47.17c-11,0-17.77-6.54-17.77-17.07V.9h2.25V30.1c0,9.28,5.8,14.82,15.52,14.82S182,39.38,182,30.1V.9h2.25V30.1C184.23,40.63,177.42,47.17,166.46,47.17Z"/><rect class="cls-1" x="192.24" y="0.96" width="34.59" height="2.04"/><polygon class="cls-1" points="192.24 9.37 204.85 9.37 204.85 46.37 207.09 46.37 207.09 9.37 211.98 9.37 211.98 46.37 214.23 46.37 214.23 9.37 226.84 9.37 226.84 7.33 192.24 7.33 192.24 9.37"/><rect class="cls-1" x="51.55" y="0.85" width="2.25" height="45.42"/><path class="cls-1" d="M80.45,21.94c2-2.51,2.27-5.73,2.27-8.64,0-7.58-5.49-12.49-14-12.49h-8v0h-2l0,45.42H69.79c9.08,0,14.94-5.29,14.94-13.49C84.73,27.71,83.26,24,80.45,21.94ZM61,26.8h8.41c2.87,0,6.29.95,6.29,5.48s-3.22,5.41-5.91,5.41H61ZM61,9.4h7.6c3.62,0,5.23,1.39,5.23,4.53s-1.72,4.54-5.1,4.54H61ZM69.79,44H61V39.94h8.79c5.11,0,8.17-2.86,8.17-7.66s-3.2-7.73-8.55-7.73H61V20.72H68.7c4.6,0,7.35-2.54,7.35-6.79s-2.66-6.79-7.48-6.79H61V3.07h7.76c7.35,0,11.74,3.82,11.74,10.23,0,4.09-.74,6.42-2.54,8.05l-1.23,1.1,1.48.74c3.55,1.77,4.3,6.19,4.3,9.59C82.48,39.82,77.74,44,69.79,44Z"/><polygon class="cls-1" points="26.68 8.52 25.91 6.75 23.25 0.69 20.8 0.69 23.66 7.21 24.64 9.47 40.81 46.41 43.27 46.41 26.68 8.52"/><path class="cls-1" d="M22.73,17.19l-.2-.45L21.24,13.8l-2.61-6-1-2.38L6.64,31l-.33.78L5.8,32.9H27.16l1.77,4H4.07l-.55,1.27-.29.69L0,46.41H2.45L5.67,38.9h5.08L7.46,46.41H9.91l3.3-7.51H29.78l3.29,7.51h2.46Zm-5.12-6.07h0l1.89,4.31.77,1.76L14.24,31H9.09ZM16.7,31l4.8-11,4.8,11Z"/></g></g></svg>