<svg xmlns="http://www.w3.org/2000/svg" viewBox="0 0 313.12 423"><defs><style>.cls-1{fill:#020202;}</style></defs><title>landing-logo</title><g id="Layer_2" data-name="Layer 2"><g id="design"><path class="cls-1" d="M133.86,95.64a32.3,32.3,0,0,0,22.82,55.14h0a32.3,32.3,0,1,0-22.82-55.14Z"/><rect class="cls-1" x="133.38" y="180.94" width="46.48" height="46.49" transform="translate(-98.5 170.48) rotate(-44.98)"/><rect class="cls-1" x="218.99" y="95.19" width="46.49" height="46.49" transform="translate(-12.82 205.91) rotate(-44.99)"/><rect class="cls-1" x="195.69" y="157.65" width="46.48" height="46.48"/><rect class="cls-1" x="47.64" y="94.84" width="46.48" height="46.48" transform="translate(-62.72 84.68) rotate(-44.99)"/><rect class="cls-1" x="133.11" y="9.63" width="46.48" height="46.48" transform="translate(22.54 120.16) rotate(-44.99)"/><rect class="cls-1" x="70.92" y="32.83" width="46.48" height="46.48"/><rect class="cls-1" x="195.72" y="32.86" width="46.48" height="46.48"/><rect class="cls-1" x="70.9" y="157.63" width="46.48" height="46.48"/><polygon class="cls-1" points="135.18 309.69 137.77 309.69 137.77 294 143.17 294 143.17 291.72 129.78 291.72 129.78 294 135.18 294 135.18 309.69"/><polygon class="cls-1" points="161.2 309.69 163.83 309.69 163.83 291.72 161.2 291.72 161.2 299.82 152.26 299.82 152.26 291.72 149.63 291.72 149.63 309.69 152.26 309.69 152.26 302.12 161.2 302.12 161.2 309.69"/><polygon class="cls-1" points="174.25 301.77 181.97 301.77 181.97 299.55 174.25 299.55 174.25 294 182.96 294 182.96 291.72 171.63 291.72 171.63 309.69 183.34 309.69 183.34 307.41 174.25 307.41 174.25 301.77"/><path class="cls-1" d="M120,419.45l0,0a8.22,8.22,0,0,1-4.52,1.2,6.61,6.61,0,0,1-6.92-6.89c0-4,2.75-6.87,6.54-6.87a5.89,5.89,0,0,1,4.55,1.75l1.75-1.76c-1.41-1.54-3.53-2.32-6.3-2.32a8.91,8.91,0,0,0-9.22,9.2c0,5.42,4,9.21,9.6,9.21a10.73,10.73,0,0,0,7-2.26v-7.09h-7.28v2.25H120Z"/><path class="cls-1" d="M138.55,415.58a5.09,5.09,0,0,0,3.61-5.11c0-3.6-2.36-5.67-6.49-5.67h-6v18h2.62V416h3.46l3.92,6.73h3l-4.24-7.14Zm-3-1.72H132.3v-6.78h3.26c2.63,0,3.9,1.11,3.9,3.39S138.15,413.86,135.56,413.86Z"/><path class="cls-1" d="M157.66,404.56a9.22,9.22,0,1,0,9.25,9.23A9.05,9.05,0,0,0,157.66,404.56Zm0,16.12a6.52,6.52,0,0,1-6.59-6.89c0-4,2.77-6.9,6.59-6.9s6.57,2.9,6.57,6.9S161.47,420.68,157.66,420.68Z"/><path class="cls-1" d="M176.4,416.32V404.8h-2.62v11.68c0,4,2.61,6.52,6.81,6.52s6.82-2.49,6.82-6.52V404.8h-2.6v11.52c0,2.89-1.42,4.36-4.22,4.36S176.4,419.21,176.4,416.32Z"/><path class="cls-1" d="M200.78,404.8H195v18h2.62v-6.43h3.13c4.07,0,6.49-2.16,6.49-5.78S204.85,404.8,200.78,404.8Zm-.11,9.25h-3v-7h3c2.61,0,3.93,1.17,3.93,3.47S203.24,414.05,200.67,414.05Z"/><polygon class="cls-1" points="2.5 331.62 0 331.62 0 381.6 29.73 381.6 29.73 379.1 2.5 379.1 2.5 331.62"/><polygon class="cls-1" points="217.6 340.74 217.6 338.24 193.53 338.24 193.53 354.36 215.02 354.36 215.02 351.86 196.03 351.86 196.03 340.74 217.6 340.74"/><polygon class="cls-1" points="312.14 340.74 312.14 338.24 288.07 338.24 288.07 354.36 309.55 354.36 309.55 351.86 290.57 351.86 290.57 340.74 312.14 340.74"/><path class="cls-1" d="M259.73,348.23c0-6.71-3.67-10-11.23-10h-8.59v20h8.59C256.06,358.21,259.73,355,259.73,348.23Zm-11.23,7.48h-6.09v-15h6.09c6.12,0,8.73,2.24,8.73,7.48S254.62,355.71,248.5,355.71Z"/><polygon class="cls-1" points="9.97 331.62 7.47 331.62 7.47 374.96 29.73 374.96 29.73 372.46 9.97 372.46 9.97 331.62"/><path class="cls-1" d="M61.72,375.45c7.76,0,11.86-4.25,11.86-12.28V331.62h-2.5v31.55c0,6.67-3,9.78-9.36,9.78s-9.44-3.11-9.44-9.78V331.62h-2.5v31.55C49.78,371.2,53.91,375.45,61.72,375.45Z"/><path class="cls-1" d="M78.56,363.59c0,10.1-6.3,16.13-16.84,16.13s-16.91-6-16.91-16.13v-32h-2.5v32c0,11.49,7.44,18.64,19.41,18.64s19.33-7.15,19.33-18.64v-32H78.56Z"/><polygon class="cls-1" points="95.79 328.89 95.79 381.59 98.29 381.59 98.29 335.6 120.47 361.24 120.58 361.36 142.58 335.63 142.58 381.59 145.08 381.59 145.08 328.86 120.57 357.53 95.79 328.89"/><polygon class="cls-1" points="103.1 347.22 102.84 346.92 102.84 381.59 105.34 381.59 105.34 353.82 120.27 371.73 120.38 371.87 135.53 353.8 135.53 381.59 138.02 381.59 138.02 346.93 120.39 367.97 103.1 347.22"/><rect class="cls-1" x="160.72" y="331.62" width="2.5" height="49.97"/><rect class="cls-1" x="168.19" y="331.62" width="2.5" height="49.97"/><polygon class="cls-1" points="188.56 334.11 217.6 334.11 217.6 331.61 186.06 331.61 186.06 381.6 218.58 381.6 218.58 379.1 188.56 379.1 188.56 334.11"/><polygon class="cls-1" points="196.03 360.86 215.02 360.86 215.02 358.36 193.53 358.36 193.53 374.96 218.58 374.96 218.58 372.46 196.03 372.46 196.03 360.86"/><polygon class="cls-1" points="283.1 334.11 312.14 334.11 312.14 331.61 280.6 331.61 280.6 381.6 313.12 381.6 313.12 379.1 283.1 379.1 283.1 334.11"/><polygon class="cls-1" points="290.57 372.46 290.57 360.86 309.55 360.86 309.55 358.36 288.07 358.36 288.07 374.96 313.12 374.96 313.12 372.46 290.57 372.46"/><polygon class="cls-1" points="248.76 362.34 239.91 362.34 239.91 381.59 242.41 381.59 242.41 364.85 247.35 364.85 257.54 381.56 257.58 381.63 260.51 381.63 248.8 362.41 248.76 362.34"/><path class="cls-1" d="M267.48,348.23c0-10.25-7.17-16.61-18.7-16.61H232.44v50h2.5V334.12h13.84c10.15,0,16.2,5.27,16.2,14.11,0,6.67-3.42,11.37-9.64,13.23l-1.55.46,11.85,19.64,0,.07h2.92l-11-18.29C263.87,360.87,267.48,355.37,267.48,348.23Z"/></g></g></svg>