<svg xmlns="http://www.w3.org/2000/svg" viewBox="0 0 191.79 154.92"><defs><style>.cls-1{fill:#fff;}</style></defs><title>Asset 3</title><g id="Layer_2" data-name="Layer 2"><g id="design"><g id="logo-shapes"><polygon class="cls-1" points="82.8 85.51 84.39 85.51 84.39 75.91 87.69 75.91 87.69 74.51 79.49 74.51 79.49 75.91 82.8 75.91 82.8 85.51"/><polygon class="cls-1" points="98.74 85.51 100.35 85.51 100.35 74.51 98.74 74.51 98.74 79.47 93.26 79.47 93.26 74.51 91.65 74.51 91.65 85.51 93.26 85.51 93.26 80.88 98.74 80.88 98.74 85.51"/><polygon class="cls-1" points="106.73 80.67 111.46 80.67 111.46 79.31 106.73 79.31 106.73 75.91 112.07 75.91 112.07 74.51 105.13 74.51 105.13 85.51 112.3 85.51 112.3 84.12 106.73 84.12 106.73 80.67"/><path class="cls-1" d="M73.5,152.75l0,0a5.08,5.08,0,0,1-2.77.73,4,4,0,0,1-4.24-4.22,4,4,0,0,1,4-4.21,3.61,3.61,0,0,1,2.78,1.07l1.07-1.07a5,5,0,0,0-3.85-1.43,5.46,5.46,0,0,0-5.65,5.64,5.52,5.52,0,0,0,5.88,5.64A6.55,6.55,0,0,0,75,153.54v-4.35H70.51v1.38h3Z"/><path class="cls-1" d="M84.86,150.38a3.12,3.12,0,0,0,2.22-3.13c0-2.21-1.45-3.47-4-3.47H79.43v11H81v-4.13h2.11l2.41,4.13h1.83l-2.6-4.38ZM83,149.32H81v-4.15h2c1.61,0,2.39.68,2.39,2.08S84.62,149.32,83,149.32Z"/><path class="cls-1" d="M96.57,143.63a5.65,5.65,0,1,0,5.67,5.65A5.54,5.54,0,0,0,96.57,143.63Zm0,9.87a4.22,4.22,0,1,1,4-4.22A4,4,0,0,1,96.57,153.5Z"/><path class="cls-1" d="M108.05,150.83v-7.05h-1.61v7.15c0,2.46,1.6,4,4.18,4s4.17-1.53,4.17-4v-7.15H113.2v7.05c0,1.77-.87,2.67-2.58,2.67S108.05,152.6,108.05,150.83Z"/><path class="cls-1" d="M123,143.78h-3.52v11h1.61v-3.95H123c2.49,0,4-1.32,4-3.53S125.47,143.78,123,143.78Zm-.07,5.66h-1.84v-4.27h1.84c1.6,0,2.41.72,2.41,2.13S124.49,149.44,122.91,149.44Z"/><polygon class="cls-1" points="1.53 98.95 0 98.95 0 129.56 18.21 129.56 18.21 128.03 1.53 128.03 1.53 98.95"/><polygon class="cls-1" points="133.28 104.54 133.28 103.01 118.54 103.01 118.54 112.88 131.7 112.88 131.7 111.35 120.07 111.35 120.07 104.54 133.28 104.54"/><polygon class="cls-1" points="191.19 104.54 191.19 103.01 176.44 103.01 176.44 112.88 189.6 112.88 189.6 111.35 177.98 111.35 177.98 104.54 191.19 104.54"/><path class="cls-1" d="M159.09,109.12c0-4.11-2.25-6.11-6.88-6.11H147v12.23h5.26C156.84,115.24,159.09,113.24,159.09,109.12Zm-6.88,4.59h-3.73v-9.17h3.73c3.75,0,5.35,1.37,5.35,4.58S156,113.71,152.21,113.71Z"/><polygon class="cls-1" points="6.11 98.95 4.58 98.95 4.58 125.5 18.21 125.5 18.21 123.97 6.11 123.97 6.11 98.95"/><path class="cls-1" d="M37.8,125.8c4.76,0,7.27-2.61,7.27-7.53V99H43.54v19.32c0,4.09-1.82,6-5.74,6s-5.78-1.91-5.78-6V99H30.49v19.32C30.49,123.19,33,125.8,37.8,125.8Z"/><path class="cls-1" d="M48.12,118.53c0,6.19-3.86,9.88-10.32,9.88s-10.35-3.69-10.35-9.88V99H25.92v19.58c0,7,4.55,11.42,11.88,11.42s11.85-4.38,11.85-11.42V99H48.12Z"/><polygon class="cls-1" points="58.67 97.28 58.67 129.56 60.2 129.56 60.2 101.39 73.79 117.09 73.86 117.17 87.33 101.41 87.33 129.56 88.86 129.56 88.86 97.26 73.85 114.82 58.67 97.28"/><polygon class="cls-1" points="63.15 108.51 62.99 108.32 62.99 129.56 64.52 129.56 64.52 112.55 73.67 123.52 73.73 123.6 83.01 112.54 83.01 129.56 84.54 129.56 84.54 108.33 73.74 121.22 63.15 108.51"/><rect class="cls-1" x="98.44" y="98.95" width="1.53" height="30.61"/><rect class="cls-1" x="103.02" y="98.95" width="1.53" height="30.61"/><polygon class="cls-1" points="115.5 100.48 133.28 100.48 133.28 98.94 113.96 98.94 113.96 129.56 133.88 129.56 133.88 128.03 115.5 128.03 115.5 100.48"/><polygon class="cls-1" points="120.07 116.86 131.7 116.86 131.7 115.33 118.54 115.33 118.54 125.5 133.88 125.5 133.88 123.97 120.07 123.97 120.07 116.86"/><polygon class="cls-1" points="173.4 100.48 191.19 100.48 191.19 98.94 171.87 98.94 171.87 129.56 191.79 129.56 191.79 128.03 173.4 128.03 173.4 100.48"/><polygon class="cls-1" points="177.98 123.97 177.98 116.86 189.6 116.86 189.6 115.33 176.44 115.33 176.44 125.5 191.79 125.5 191.79 123.97 177.98 123.97"/><polyline class="cls-1" points="158.42 129.58 159.56 129.58 152.39 117.81 152.37 117.77 146.95 117.77 146.95 129.56 148.48 129.56 148.48 119.3 151.51 119.3 157.75 129.54 157.77 129.58 158.42 129.58"/><path class="cls-1" d="M163.84,109.12c0-6.27-4.39-10.17-11.46-10.17h-10v30.61h1.53V100.48h8.48c6.22,0,9.93,3.23,9.93,8.64a7.87,7.87,0,0,1-5.91,8.11l-1,.28,7.25,12,0,0h1.79l-6.76-11.2A9.43,9.43,0,0,0,163.84,109.12Z"/><path class="cls-1 logo-shapes" d="M88.77,27.51a7.41,7.41,0,1,0,2.17-5.24A7.36,7.36,0,0,0,88.77,27.51Z"/><rect class="cls-1 logo-shapes" x="90.88" y="42.27" width="10.58" height="10.58" transform="translate(-5.46 81.94) rotate(-45)"/><rect class="cls-1 logo-shapes" x="110.9" y="22.2" width="10.58" height="10.58" transform="translate(14.59 90.21) rotate(-45)"/><rect class="cls-1 logo-shapes" x="105.46" y="36.82" width="10.58" height="10.58"/><rect class="cls-1 logo-shapes" x="70.82" y="22.13" width="10.58" height="10.58" transform="translate(2.9 61.85) rotate(-45)"/><rect class="cls-1 logo-shapes" x="90.81" y="2.19" width="10.58" height="10.58" transform="translate(22.85 70.14) rotate(-45)"/><rect class="cls-1 logo-shapes" x="76.26" y="7.62" width="10.58" height="10.58"/><rect class="cls-1 logo-shapes" x="105.46" y="7.62" width="10.58" height="10.58"/><rect class="cls-1 logo-shapes" x="76.26" y="36.82" width="10.58" height="10.58"/></g></g></g></svg>