<svg xmlns="http://www.w3.org/2000/svg" viewBox="0 0 315.39 47"><defs><style>.contact-svg{fill:#231f20;}</style></defs><title>contact</title><g id="Layer_2" data-name="Layer 2"><g id="design"><path class="contact-svg" d="M72.56,46.94C59.1,46.94,49,36.85,49,23.47S59.1,0,72.56,0,96.09,10.09,96.09,23.47,86,46.94,72.56,46.94Zm0-44.69c-12.17,0-21.35,9.12-21.35,21.22s9.18,21.22,21.35,21.22A20.78,20.78,0,0,0,93.84,23.47,20.78,20.78,0,0,0,72.56,2.25Zm0,38.19c-9.43,0-16.27-7.14-16.27-17s6.84-17,16.27-17,16.2,7.13,16.2,17S82,40.44,72.56,40.44Zm0-31.68c-8.13,0-14,6.18-14,14.71s5.89,14.72,14,14.72,14-6.19,14-14.72S80.64,8.76,72.56,8.76Z"/><rect class="contact-svg" x="147.54" y="0.96" width="34.6" height="2.04"/><polygon class="contact-svg" points="147.54 9.38 160.15 9.38 160.15 46.38 162.4 46.38 162.4 9.38 167.29 9.38 167.29 46.38 169.54 46.38 169.54 9.38 182.15 9.38 182.15 7.34 147.54 7.34 147.54 9.38"/><rect class="contact-svg" x="280.79" y="0.96" width="34.6" height="2.04"/><polygon class="contact-svg" points="280.79 9.38 293.4 9.38 293.4 46.38 295.65 46.38 295.65 9.38 300.54 9.38 300.54 46.38 302.79 46.38 302.79 9.38 315.39 9.38 315.39 7.34 280.79 7.34 280.79 9.38"/><polygon class="contact-svg" points="210.38 8.52 209.61 6.76 206.95 0.69 204.49 0.69 207.35 7.21 208.34 9.47 224.51 46.42 226.97 46.42 210.38 8.52"/><path class="contact-svg" d="M206.42,17.2l-.19-.45-1.29-2.95-2.62-6-1-2.37L190.33,31l-.33.78-.51,1.17h21.36l1.77,4H187.76l-.55,1.27-.3.69-3.22,7.51h2.45l3.22-7.51h5.08l-3.29,7.51h2.46l3.29-7.51h16.58l3.29,7.51h2.46Zm-5.12-6.08h0l1.9,4.32L204,17.2l-6,13.76h-5.15ZM200.39,31l4.8-11L210,31Z"/><path class="contact-svg" d="M104.91,46.22h-2V.68h2.78l23.72,25.5,1.1,1.2.17.18c-.07-8.49-.08-26.51-.08-26.7h2c0,.19,0,19.75.09,27.74l-.08,4.06-1.7-1.83L129,28.74l-1.08-1.19-23-24.73Z"/><path class="contact-svg" d="M139.33,46.52h-2.72L112.89,21c-.41-.44-.86-.95-1.3-1.47,0,.66.06,1.32.06,1.93v24.8h-2V21.42c0-1.6-.17-3.56-.31-4.93L109,13.11l2.14,2.65c.74.92,2.16,2.64,3.26,3.83l22.94,24.72V.86h2Z"/><path class="contact-svg" d="M34.6,14.21l1.88-1.08A15.67,15.67,0,0,0,23.53,6.69c-9.39,0-16.2,7.11-16.2,16.91s6.81,16.9,16.2,16.9a15.67,15.67,0,0,0,12.95-6.44L34.6,33a13.43,13.43,0,0,1-11.07,5.4c-8.16,0-14.08-6.22-14.08-14.78S15.37,8.81,23.53,8.81A13.43,13.43,0,0,1,34.6,14.21Z"/><path class="contact-svg" d="M23.53,44.88c-12.2,0-21.41-9.15-21.41-21.28S11.33,2.31,23.53,2.31a21.13,21.13,0,0,1,17.21,8.36L42.6,9.6A23.17,23.17,0,0,0,23.53.19C10.12.19,0,10.25,0,23.6S10.12,47,23.53,47A23.17,23.17,0,0,0,42.6,37.59l-1.86-1.07A21.1,21.1,0,0,1,23.53,44.88Z"/><path class="contact-svg" d="M263.71,14.21l1.88-1.08a15.69,15.69,0,0,0-12.95-6.44c-9.39,0-16.21,7.11-16.21,16.91s6.82,16.9,16.21,16.9a15.69,15.69,0,0,0,12.95-6.44L263.71,33a13.46,13.46,0,0,1-11.07,5.4c-8.17,0-14.09-6.22-14.09-14.78s5.92-14.79,14.09-14.79A13.46,13.46,0,0,1,263.71,14.21Z"/><path class="contact-svg" d="M252.64,44.88c-12.21,0-21.42-9.15-21.42-21.28s9.21-21.29,21.42-21.29a21.12,21.12,0,0,1,17.2,8.36L271.7,9.6A23.16,23.16,0,0,0,252.64.19C239.22.19,229.1,10.25,229.1,23.6S239.22,47,252.64,47a23.16,23.16,0,0,0,19.06-9.41l-1.86-1.07A21.1,21.1,0,0,1,252.64,44.88Z"/></g></g></svg>