<svg xmlns="http://www.w3.org/2000/svg" viewBox="0 0 304.92 48.12"><defs><style>.services-svg{fill:#f9f2d4;}</style></defs><title>services</title><g id="Layer_2" data-name="Layer 2"><g id="design"><path class="services-svg" d="M289.14,41.48c-6,0-8.86-3.34-10.81-6.6l-.13-.2L280,33.59l.13.21c2,3.34,4.3,5.56,9,5.56,3.86,0,6.35-1.87,6.35-4.76s-1.48-4.2-6.62-6.51L286,26.79c-5.76-2.58-11.1-6.08-11.1-14.19,0-7.42,5.64-12.6,13.71-12.6,6.36,0,10.68,2.43,13.6,7.65l.12.22-1.84,1-.12-.21c-2.54-4.54-6.17-6.57-11.76-6.57-6.83,0-11.6,4.31-11.6,10.49,0,6.54,3.77,9.54,9.85,12.26l2.92,1.3c4.46,2,7.88,3.9,7.88,8.44C297.61,38.65,294.13,41.48,289.14,41.48Z"/><path class="services-svg" d="M289.27,48.12c-10.61,0-15.25-6.23-17.07-9.94l-.11-.21L274,37l.11.22C275.7,40.52,279.8,46,289.27,46c8.23,0,13.54-4.51,13.54-11.47S298.75,24.4,291.74,21.3L288.87,20C285,18.3,282,16.67,282,12.47c0-3.51,2.68-6,6.52-6,3.6,0,5.85,1.37,7.77,4.71l.13.22-1.83,1.06-.13-.22c-1.55-2.7-3.1-3.66-5.94-3.66-2.68,0-4.41,1.51-4.41,3.85,0,2.5,1.15,3.65,5.58,5.59l2.88,1.32c7.38,3.26,12.31,7.09,12.31,15.16C304.92,42.79,298.78,48.12,289.27,48.12Z"/><rect class="services-svg" x="167.3" y="1.16" width="2.26" height="45.81"/><rect class="services-svg" x="174.05" y="1.16" width="2.26" height="45.81"/><path class="services-svg" d="M106.32,16.39c0-6.16-3.37-9.15-10.3-9.15H88.15v18.3H96C103,25.54,106.32,22.55,106.32,16.39ZM96,23.25H90.44V9.53H96c5.61,0,8,2.05,8,6.86S101.63,23.25,96,23.25Z"/><polygon class="services-svg" points="96.25 29.33 88.15 29.33 88.15 46.97 90.44 46.97 90.44 31.62 94.97 31.62 104.31 46.94 104.34 47 105.31 47 107.03 47 96.3 29.39 96.25 29.33"/><path class="services-svg" d="M104.33,30.24c5.78-2.27,9.09-7.31,9.09-13.85,0-9.39-6.57-15.23-17.15-15.23h-15V47h2.29V3.45H96.27c9.31,0,14.86,4.84,14.86,12.94,0,6.12-3.14,10.42-8.84,12.13l-1.42.42,10.86,18,0,.06h2.67Z"/><polygon class="services-svg" points="265.36 9.88 265.36 7.81 243.68 7.81 243.68 21.79 263.01 21.79 263.01 19.73 245.75 19.73 245.75 9.88 265.36 9.88"/><polygon class="services-svg" points="238.95 3.37 265.36 3.37 265.36 1.31 236.88 1.31 236.88 46.99 266.25 46.99 266.25 44.92 238.95 44.92 238.95 3.37"/><polygon class="services-svg" points="245.75 27.23 263.01 27.23 263.01 25.16 243.68 25.16 243.68 40.48 266.25 40.48 266.25 38.42 245.75 38.42 245.75 27.23"/><polygon class="services-svg" points="70.25 9.88 70.25 7.81 48.57 7.81 48.57 21.79 67.9 21.79 67.9 19.73 50.63 19.73 50.63 9.88 70.25 9.88"/><polygon class="services-svg" points="43.84 3.37 70.25 3.37 70.25 1.31 41.77 1.31 41.77 46.99 71.14 46.99 71.14 44.92 43.84 44.92 43.84 3.37"/><polygon class="services-svg" points="50.63 27.23 67.9 27.23 67.9 25.16 48.57 25.16 48.57 40.48 71.14 40.48 71.14 38.42 50.63 38.42 50.63 27.23"/><path class="services-svg" d="M208.91,38.87c-8.17,0-14.09-6.23-14.09-14.8s5.92-14.79,14.09-14.79A13.52,13.52,0,0,1,220,14.73l2-1.16A15.73,15.73,0,0,0,208.91,7c-9.48,0-16.35,7.17-16.35,17.05s6.87,17.06,16.35,17.06A15.71,15.71,0,0,0,222,34.57l-2-1.15A13.52,13.52,0,0,1,208.91,38.87Z"/><path class="services-svg" d="M208.91,45.4c-12.23,0-21.46-9.17-21.46-21.33s9.23-21.33,21.46-21.33a21.1,21.1,0,0,1,17.27,8.43l2-1.15A23.34,23.34,0,0,0,208.91.48c-13.52,0-23.72,10.14-23.72,23.59s10.2,23.6,23.72,23.6a23.35,23.35,0,0,0,19.26-9.55l-2-1.14A21.11,21.11,0,0,1,208.91,45.4Z"/><polygon class="services-svg" points="140.88 37.48 141.87 39.73 142.92 42.12 160.43 1.36 157.97 1.36 142.9 36.44 141.84 34.03 140.22 30.33 152.93 1.36 150.46 1.36 138.98 27.51 127.52 1.36 125.05 1.36 137.75 30.33 137.75 30.33 140.88 37.48"/><polygon class="services-svg" points="137.03 46.92 139.5 46.92 119.55 1.36 117.08 1.36 137.03 46.92"/><path class="services-svg" d="M17.05,41.48c-6,0-8.86-3.34-10.82-6.6l-.12-.2,1.81-1.09L8,33.8c2,3.34,4.31,5.56,9,5.56,3.86,0,6.35-1.87,6.35-4.76s-1.48-4.2-6.62-6.51l-2.92-1.3C8.09,24.21,2.76,20.71,2.76,12.6,2.76,5.18,8.4,0,16.47,0c6.36,0,10.68,2.43,13.6,7.65l.12.22-1.85,1-.11-.21c-2.54-4.54-6.17-6.57-11.76-6.57-6.83,0-11.6,4.31-11.6,10.49,0,6.54,3.77,9.54,9.85,12.26l2.92,1.3c4.46,2,7.88,3.9,7.88,8.44C25.52,38.65,22,41.48,17.05,41.48Z"/><path class="services-svg" d="M17.18,48.12C6.56,48.12,1.93,41.89.11,38.18L0,38,1.89,37l.11.22C3.6,40.52,7.71,46,17.18,46c8.23,0,13.54-4.51,13.54-11.47S26.66,24.4,19.65,21.3L16.78,20C12.92,18.3,10,16.67,10,12.47c0-3.51,2.68-6,6.52-6,3.6,0,5.85,1.37,7.77,4.71l.13.22L22.54,12.5l-.13-.22c-1.55-2.7-3.1-3.66-5.94-3.66-2.68,0-4.41,1.51-4.41,3.85,0,2.5,1.15,3.65,5.58,5.59l2.87,1.32c7.39,3.26,12.32,7.09,12.32,15.16C32.83,42.79,26.69,48.12,17.18,48.12Z"/></g></g></svg>